<?xml version="1.0" encoding="utf-8"?>
<!-- Generator: Adobe Illustrator 19.2.0, SVG Export Plug-In . SVG Version: 6.00 Build 0)  -->
<svg version="1.1" id="Layer_1" xmlns="http://www.w3.org/2000/svg" xmlns:xlink="http://www.w3.org/1999/xlink" x="0px" y="0px"
	 width="16px" height="16px" viewBox="0 0 16 16" style="enable-background:new 0 0 16 16;" xml:space="preserve">
<style type="text/css">
	.st0{fill-rule:evenodd;clip-rule:evenodd;}
</style>
<g>
	<g>
		<path class="st0" d="M12.1,10.7c0.8-1.1,1.3-2.5,1.3-4c0-3.7-3-6.7-6.7-6.7C3,0,0,3,0,6.7c0,3.7,3,6.7,6.7,6.7
			c1.5,0,2.9-0.5,4-1.3l3.9,3.9l1.4-1.4L12.1,10.7z M6.7,11.5c-2.6,0-4.8-2.1-4.8-4.8c0-2.6,2.1-4.8,4.8-4.8c2.6,0,4.8,2.1,4.8,4.8
			C11.5,9.4,9.4,11.5,6.7,11.5z"/>
	</g>
</g>
</svg>
