<svg viewBox="0 0 579.55 467.17" xmlns="http://www.w3.org/2000/svg">
  <g fill="#231f20">
    <path d="M108.1 18.2c-52.73 0-95.46 41.55-95.46 92.8v166.5c0-108.45 94.85-118.94 142-75.1L281.1 323.84 281 147.9 175.6 45.38a96.89 96.89 0 0 0-67.5-27.18z"/>
    <path d="m190.03 236.38 91.07 87.46-.13-175.85zm80.65 97.52-90.65 87.87.14-175.73zM147.69 214.85c-25.85-25.48-53.51-22.78-53.51-22.78s-70.3-1.29-81.51 85.24v130.84c0 24.7 20.6 44.72 46 44.72h78.46a10.56 10.56 0 0 0 10.56-10.56zm321.05 238.02c52.73 0 95.46-41.55 95.46-92.81v-166.5c0 108.45-94.85 118.94-142 75.1L295.74 147.23l.06 176 105.44 102.46a96.89 96.89 0 0 0 67.5 27.18z"/>
    <path d="m386.81 234.7-91.07-87.47.13 175.86zm-80.65-97.52 90.65-87.88-.14 175.73zm122.99 119.04C455 281.7 482.66 279 482.66 279s70.3 1.3 81.51-85.24V62.92c0-24.7-20.6-44.72-46-44.72h-78.46a10.56 10.56 0 0 0-10.56 10.56zm113.99 186.92h-3.35v-2h9.12v2h-3.35v8.48h-2.42zm17.78 8.48v-6.27l-3.08 5.17h-1.09l-3.06-5v6.14h-2.29v-10.49h2l3.92 6.49 3.85-6.49h2v10.45z"/>
  </g>
</svg>
