<svg id="Layer_1" data-name="Layer 1" xmlns="http://www.w3.org/2000/svg" viewBox="0 0 283.36 49.41"><defs><style>.cls-1{fill:#0092c8;}</style></defs><path class="cls-1" d="M91.4,7.35H88.55v20L73.72,8.48A2.92,2.92,0,0,0,71.4,7.35,3.64,3.64,0,0,0,67.75,11V35.2a3.64,3.64,0,0,0,3.65,3.65h2.81V18.79L89,37.69a3,3,0,0,0,2.39,1.16,3.64,3.64,0,0,0,3.65-3.65V11A3.64,3.64,0,0,0,91.4,7.35Z"/><path class="cls-1" d="M101.67,35.2V11a3.65,3.65,0,0,1,3.66-3.65h14.42A3.64,3.64,0,0,1,123.4,11v1.7h-15v7.44h14v5.39h-14v8h15v1.7a3.64,3.64,0,0,1-3.65,3.65H105.33A3.65,3.65,0,0,1,101.67,35.2Z"/><path class="cls-1" d="M175.56,39.25a16.76,16.76,0,0,1-8.36-2,13.51,13.51,0,0,1-5.44-5.64,18.28,18.28,0,0,1-1.9-8.56,18,18,0,0,1,1.9-8.5,13.52,13.52,0,0,1,5.44-5.62,16.76,16.76,0,0,1,8.36-2,18.5,18.5,0,0,1,6,1A14.61,14.61,0,0,1,184,9a3,3,0,0,1,1.23,3.77l-1.21,2.77a16.09,16.09,0,0,0-4.14-2.32,12.2,12.2,0,0,0-4.22-.73,8.11,8.11,0,0,0-6.51,2.68c-1.53,1.78-2.3,4.42-2.3,7.9s.77,6.12,2.3,7.94a8.07,8.07,0,0,0,6.51,2.72,12.2,12.2,0,0,0,4.22-.73,16.09,16.09,0,0,0,4.14-2.32l1.22,2.77A3,3,0,0,1,184,37.21a14.61,14.61,0,0,1-2.5,1.09A18.5,18.5,0,0,1,175.56,39.25Z"/><path class="cls-1" d="M192.44,35.2V11a3.64,3.64,0,0,1,3.65-3.65h14.42A3.65,3.65,0,0,1,214.17,11v1.7h-15v7.44h14v5.39h-14v8h15v1.7a3.65,3.65,0,0,1-3.66,3.65H196.09A3.64,3.64,0,0,1,192.44,35.2Z"/><path class="cls-1" d="M231.4,39.25a25.75,25.75,0,0,1-4.67-.42,21.16,21.16,0,0,1-4.27-1.24l-.26-.11a3.64,3.64,0,0,1-1.83-4.85l.9-2a17.76,17.76,0,0,0,4.87,2.43,17.55,17.55,0,0,0,5.31.8,9,9,0,0,0,4.62-1,3,3,0,0,0,1.62-2.69A2.45,2.45,0,0,0,237,28.5a5.41,5.41,0,0,0-2.12-1.24A31.54,31.54,0,0,0,231,26.2a32.46,32.46,0,0,1-5.22-1.46,12.89,12.89,0,0,1-3.52-1.95,6.71,6.71,0,0,1-2-2.59,8.9,8.9,0,0,1-.61-3.43,8.5,8.5,0,0,1,1.57-5,10.52,10.52,0,0,1,4.38-3.52A15.75,15.75,0,0,1,232.2,7a22.11,22.11,0,0,1,4.4.44,20.16,20.16,0,0,1,4,1.24l0,0a3.61,3.61,0,0,1,1.75,4.77l-.95,2.11A15.55,15.55,0,0,0,237,13.1a14.31,14.31,0,0,0-4.69-.8,7.51,7.51,0,0,0-4.3,1.09,3.38,3.38,0,0,0-1.59,2.94,2.57,2.57,0,0,0,.62,1.73,5.21,5.21,0,0,0,2.06,1.26,29.85,29.85,0,0,0,4,1.12,33.4,33.4,0,0,1,5.13,1.47,14.15,14.15,0,0,1,3.57,1.92,6.81,6.81,0,0,1,2,2.52,7.69,7.69,0,0,1,.67,3.3,8.51,8.51,0,0,1-1.55,5.11,9.83,9.83,0,0,1-4.47,3.32A18.93,18.93,0,0,1,231.4,39.25Z"/><path class="cls-1" d="M261.41,39.25a25.75,25.75,0,0,1-4.67-.42,21.16,21.16,0,0,1-4.27-1.24l-.26-.11a3.64,3.64,0,0,1-1.83-4.85l.9-2a17.84,17.84,0,0,0,4.86,2.43,17.6,17.6,0,0,0,5.31.8,9,9,0,0,0,4.63-1,3,3,0,0,0,1.61-2.69A2.44,2.44,0,0,0,267,28.5a5.41,5.41,0,0,0-2.12-1.24A32,32,0,0,0,261,26.2a32.17,32.17,0,0,1-5.22-1.46,12.74,12.74,0,0,1-3.52-1.95,6.71,6.71,0,0,1-2-2.59,8.9,8.9,0,0,1-.62-3.43,8.57,8.57,0,0,1,1.57-5,10.65,10.65,0,0,1,4.38-3.52A15.83,15.83,0,0,1,262.21,7a22.11,22.11,0,0,1,4.4.44,20.16,20.16,0,0,1,4,1.24l0,0a3.6,3.6,0,0,1,1.74,4.77l-.94,2.11A15.69,15.69,0,0,0,267,13.1a14.33,14.33,0,0,0-4.7-.8A7.45,7.45,0,0,0,258,13.39a3.38,3.38,0,0,0-1.59,2.94,2.57,2.57,0,0,0,.62,1.73,5.21,5.21,0,0,0,2.06,1.26,29.41,29.41,0,0,0,4,1.12,34.08,34.08,0,0,1,5.13,1.47,14.07,14.07,0,0,1,3.56,1.92,6.74,6.74,0,0,1,2.06,2.52,7.84,7.84,0,0,1,.66,3.3,8.5,8.5,0,0,1-1.54,5.11,9.94,9.94,0,0,1-4.47,3.32A19,19,0,0,1,261.41,39.25Z"/><polygon class="cls-1" points="127.58 38.85 135.63 38.85 143.51 27.97 135.78 27.97 127.58 38.85"/><polygon class="cls-1" points="147.45 22.88 159.09 7.35 151.08 7.35 143.51 17.83 135.9 7.35 127.85 7.35 139.62 22.88 143.51 27.97 151.39 38.85 159.44 38.85 147.45 22.88"/><path class="cls-1" d="M12.44,5.63h0A7.73,7.73,0,0,0,4.6,13.25V26.93c0-8.91,7.79-9.77,11.66-6.17h0l10.39,10V16.28L18,7.86A7.94,7.94,0,0,0,12.44,5.63Z"/><polygon class="cls-1" points="19.17 23.55 26.65 30.73 26.64 16.29 19.17 23.55"/><polygon class="cls-1" points="25.79 31.56 18.35 38.78 18.36 24.35 25.79 31.56"/><path class="cls-1" d="M15.69,21.78a6,6,0,0,0-4.4-1.87s-5.77-.1-6.69,7V37.66a3.72,3.72,0,0,0,3.78,3.67h6.44a.87.87,0,0,0,.87-.86V21.78Z"/><path class="cls-1" d="M42.06,41.33h0a7.73,7.73,0,0,0,7.84-7.62V20c0,8.91-7.79,9.77-11.67,6.17h0l-10.38-10V30.68l8.66,8.42A8,8,0,0,0,42.06,41.33Z"/><polygon class="cls-1" points="35.33 23.41 27.85 16.23 27.86 30.67 35.33 23.41"/><polygon class="cls-1" points="28.7 15.4 36.15 8.19 36.14 22.62 28.7 15.4"/><path class="cls-1" d="M38.81,25.18a5.93,5.93,0,0,0,4.39,1.87s5.78.11,6.7-7V9.3a3.73,3.73,0,0,0-3.78-3.67H39.67a.87.87,0,0,0-.86.87V25.18Z"/><path class="cls-1" d="M275.58,6.52h-1.1V5.88h3v.64h-1.1v2.8h-.8Z"/><path class="cls-1" d="M281.43,9.32V7.25l-1,1.7h-.36l-1-1.65v2h-.75V5.88H279L280.25,8l1.27-2.13h.65V9.32Z"/></svg>