
<svg  xmlns="http://www.w3.org/2000/svg" viewBox="0 0 560 560"  style="fill:#3c434a"><path d="M81.592,582.676L582.404,582.676L582.404,81.629L81.592,81.629L81.592,582.676ZM531.356,531.512L359.422,531.512L313.463,378.82C340.828,364.038 359.422,335.091 359.422,301.799C359.422,253.482 320.275,214.317 271.982,214.317C271.958,214.317 271.934,214.32 271.934,214.32L271.982,531.437L132.64,531.437L132.64,131.864L378.792,131.864C463.052,131.864 531.359,200.2 531.359,284.499C531.359,338.548 503.256,385.995 460.902,413.119L531.356,531.512ZM500.812,40.983L40.963,40.983L40.963,501.045L0,501.045L0,0L500.812,0L500.812,40.983Z" /></svg>
